<svg xmlns="http://www.w3.org/2000/svg" viewBox="0 0 64 64" role="img" aria-labelledby="title desc">
  <title id="title">Plumetopia</title>
  <desc id="desc">Un petit oiseau rose dans une fleur crème.</desc>
  <defs>
    <linearGradient id="bg" x1="8" y1="7" x2="56" y2="58" gradientUnits="userSpaceOnUse">
      <stop stop-color="#fff4c5"/>
      <stop offset=".52" stop-color="#ffd6d0"/>
      <stop offset="1" stop-color="#d7f0d2"/>
    </linearGradient>
    <linearGradient id="bird" x1="18" y1="18" x2="47" y2="47" gradientUnits="userSpaceOnUse">
      <stop stop-color="#ec7f88"/>
      <stop offset="1" stop-color="#c9516e"/>
    </linearGradient>
  </defs>
  <rect x="2" y="2" width="60" height="60" rx="22" fill="url(#bg)"/>
  <path d="M14 45c6-4 12-5 18-2 7 3 13 2 19-3" fill="none" stroke="#7a955a" stroke-width="3.2" stroke-linecap="round"/>
  <path d="M48 41c2-5 5-8 10-9-1 5-4 9-10 11" fill="#7eb26d"/>
  <path d="M15 45c-3-5-7-8-11-8 1 5 4 9 10 10" fill="#92c67c"/>
  <path d="M20 35c-1-9 5-17 15-17 8 0 14 6 14 14 0 9-8 15-17 15-7 0-11-4-12-12Z" fill="url(#bird)"/>
  <path d="M21 25c-3-5-3-9-1-13 5 3 8 6 9 11" fill="#c9516e"/>
  <path d="M25 38c6-7 13-9 20-5-4 8-11 11-20 5Z" fill="#f6a5a2"/>
  <circle cx="39.5" cy="27.5" r="2.2" fill="#34323c"/>
  <circle cx="40.2" cy="26.8" r=".7" fill="#fff"/>
  <path d="m48 30 9 3-9 3Z" fill="#e9aa3f"/>
  <path d="M25 46c0 3-1 5-3 7M31 47c0 3 1 5 3 7" fill="none" stroke="#8b5b52" stroke-width="2" stroke-linecap="round"/>
  <path d="M12 21c2-2 4-2 6 0M49 14c2-2 4-2 6 0" fill="none" stroke="#fff" stroke-width="2" stroke-linecap="round" opacity=".85"/>
</svg>
