<svg xmlns="http://www.w3.org/2000/svg" viewBox="0 0 800 600" role="img" aria-labelledby="title desc">
  <title id="title">Portrait illustré d'un oiseau</title>
  <desc id="desc">Illustration temporaire pastel destinée à être remplacée par une capture autorisée du jeu.</desc>
  <defs>
    <linearGradient id="sky" x1="78" y1="45" x2="722" y2="560" gradientUnits="userSpaceOnUse">
      <stop stop-color="#fff2bf"/>
      <stop offset=".45" stop-color="#ffd9d7"/>
      <stop offset="1" stop-color="#cfe9dd"/>
    </linearGradient>
    <linearGradient id="body" x1="262" y1="175" x2="544" y2="464" gradientUnits="userSpaceOnUse">
      <stop stop-color="#ed8c91"/>
      <stop offset="1" stop-color="#c85370"/>
    </linearGradient>
    <filter id="shadow" x="-30%" y="-30%" width="160%" height="160%">
      <feDropShadow dx="0" dy="18" stdDeviation="18" flood-color="#76535f" flood-opacity=".18"/>
    </filter>
  </defs>
  <rect width="800" height="600" fill="url(#sky)"/>
  <circle cx="642" cy="105" r="55" fill="#ffe47d" opacity=".9"/>
  <path d="M0 440c119-82 233-98 343-48 117 53 244 28 457-95v303H0Z" fill="#b9dfa5" opacity=".8"/>
  <path d="M0 508c174-80 319-68 436 18 95 70 217 65 364-8v82H0Z" fill="#8fc8a0"/>
  <path d="M103 456c137-4 275 9 414 42 89 21 151 22 188 4" fill="none" stroke="#735850" stroke-width="22" stroke-linecap="round"/>
  <path d="M486 488c36-51 78-78 126-81-17 52-55 83-114 94" fill="#6ca86b"/>
  <g filter="url(#shadow)">
    <path d="M244 365c-22-91 32-184 134-204 96-18 189 41 213 132 28 105-42 197-153 215-89 14-169-36-194-143Z" fill="url(#body)"/>
    <path d="M291 224c-34-36-47-73-39-110 47 20 79 52 94 98" fill="#bd4f69"/>
    <path d="M353 415c48-98 121-136 204-91-28 96-103 136-204 91Z" fill="#f5ada6"/>
    <path d="M389 446c50-39 100-50 151-31-32 51-83 62-151 31Z" fill="#de727f" opacity=".78"/>
    <circle cx="482" cy="258" r="14" fill="#2e3038"/>
    <circle cx="487" cy="253" r="4" fill="#fff"/>
    <path d="m573 287 91 27-88 40Z" fill="#e3a13e"/>
    <path d="M330 494c0 31-9 54-28 69M405 505c1 28 12 48 32 61" fill="none" stroke="#75524d" stroke-width="12" stroke-linecap="round"/>
  </g>
  <g fill="#fff" opacity=".82">
    <circle cx="128" cy="117" r="6"/>
    <circle cx="158" cy="93" r="4"/>
    <circle cx="683" cy="231" r="7"/>
    <circle cx="710" cy="205" r="4"/>
  </g>
</svg>
